<?xml version="1.0" standalone="no"?>
<!DOCTYPE svg PUBLIC "-//W3C//DTD SVG 20010904//EN"
 "http://www.w3.org/TR/2001/REC-SVG-20010904/DTD/svg10.dtd">
<svg version="1.0" xmlns="http://www.w3.org/2000/svg"
 width="435.000000pt" height="435.000000pt" viewBox="0 0 435.000000 435.000000"
 preserveAspectRatio="xMidYMid meet">
<metadata>
Created by potrace 1.11, written by Peter Selinger 2001-2013
</metadata>
<g transform="translate(0.000000,435.000000) scale(0.100000,-0.100000)"
fill="#000000" stroke="none">
<path d="M2215 4333 c13 -35 33 -150 39 -228 7 -79 6 -81 -21 -107 -15 -14
-44 -34 -63 -43 -85 -43 -235 -169 -316 -267 -38 -46 -74 -90 -79 -98 -12 -20
9 4 88 98 98 116 227 216 372 287 69 34 150 39 252 16 68 -16 57 -19 292 78
80 34 142 39 231 20 48 -10 69 -29 32 -29 -29 0 -155 -65 -196 -100 -42 -37
-78 -101 -81 -143 -2 -15 -4 -29 -6 -31 -2 -2 -25 -15 -51 -30 -65 -38 -61
-44 5 -9 35 19 57 38 66 60 15 34 42 47 171 83 81 22 179 26 227 10 34 -12 71
-65 51 -73 -10 -4 -10 -6 0 -6 6 -1 12 -14 12 -30 l0 -28 -47 23 c-25 13 -58
24 -72 23 -24 -1 -24 -2 5 -8 17 -4 48 -16 70 -27 36 -18 39 -22 40 -64 1 -25
2 -50 3 -56 1 -14 40 -29 109 -43 107 -22 156 -11 241 53 19 14 36 24 38 22 8
-8 -36 -82 -66 -110 -17 -17 -31 -33 -31 -36 0 -4 33 -7 73 -6 56 0 81 -4 112
-21 58 -32 146 -104 184 -151 l32 -41 -72 20 c-73 20 -117 20 -66 0 44 -17 31
-22 -15 -5 -24 9 -61 19 -83 22 -36 7 -41 11 -46 42 -4 19 -7 27 -8 17 0 -10
-10 -37 -21 -59 -23 -47 -24 -51 -10 -43 17 11 -21 -99 -61 -174 -64 -119
-140 -210 -202 -242 -37 -20 -146 -43 -246 -54 -30 -3 -56 -7 -59 -9 -2 -2 3
-15 11 -28 8 -12 18 -34 22 -47 6 -20 4 -23 -9 -18 -15 6 -15 4 1 -24 10 -17
33 -44 52 -59 l33 -28 -66 -7 c-83 -9 -108 1 -189 74 -35 31 -78 70 -97 86
-19 17 -42 39 -50 49 -14 18 -13 19 33 12 43 -7 79 -20 205 -78 24 -10 46 -18
48 -16 2 3 -68 37 -156 78 -138 63 -182 91 -167 107 2 2 44 -15 92 -37 48 -22
89 -39 91 -37 2 2 -41 24 -95 49 l-100 46 -46 91 c-25 51 -43 96 -40 101 4 6
2 10 -3 10 -5 0 -37 47 -71 105 -34 57 -66 107 -71 110 -36 22 44 53 166 65
l89 9 -115 -4 c-84 -2 -130 -9 -170 -24 -32 -11 -94 -22 -150 -26 -107 -7
-207 -26 -281 -54 -47 -18 -49 -18 -49 -1 0 43 125 315 157 342 8 7 49 15 92
19 l76 7 -82 -1 c-73 -2 -86 -5 -124 -32 -23 -17 -43 -37 -44 -45 -2 -8 -14
-40 -28 -71 -28 -61 -67 -191 -67 -225 0 -17 -28 -43 -34 -32 -1 2 -10 16 -20
31 -11 19 -15 38 -11 54 10 40 61 124 110 182 25 29 45 55 45 57 0 32 -95 -90
-143 -183 l-38 -72 21 -41 c11 -22 18 -40 15 -40 -3 0 -36 16 -74 35 -56 28
-71 40 -80 67 -16 48 -16 90 -2 118 l12 25 -20 -25 c-11 -14 -19 -32 -16 -40
2 -8 6 -34 10 -56 6 -40 5 -42 -35 -63 -22 -11 -43 -21 -47 -21 -3 0 -3 24 0
53 l5 52 -13 -35 -13 -35 -1 49 c-1 27 -3 47 -5 45 -8 -10 -14 -109 -6 -104
19 12 14 -42 -6 -70 -36 -50 -104 -176 -104 -193 0 -12 -5 -11 -24 7 -13 12
-65 35 -117 52 -51 16 -102 37 -113 47 -11 9 -16 11 -12 5 5 -9 -2 -13 -23
-13 -60 0 -144 111 -177 234 -19 69 -18 190 2 256 21 71 53 99 154 134 79 28
84 31 121 88 21 33 54 99 75 149 43 103 70 131 174 184 89 45 103 44 56 -2
-21 -21 -51 -58 -68 -83 -16 -25 -19 -32 -6 -15 13 16 44 52 70 81 27 28 45
54 41 58 -4 4 0 4 8 1 9 -3 21 1 28 9 7 9 35 19 62 22 27 4 52 10 54 14 3 4
-28 1 -67 -6 -81 -16 -258 -97 -299 -138 -14 -14 -51 -76 -82 -138 -30 -62
-65 -125 -76 -139 -12 -16 -53 -40 -102 -59 -116 -47 -159 -89 -180 -175 l-7
-30 -1 34 c-1 19 -18 70 -40 115 -21 44 -53 120 -71 168 -19 49 -35 87 -36 85
-1 -1 -5 -29 -9 -62 -20 -187 -69 -341 -133 -418 -125 -149 -184 -286 -166
-390 5 -31 13 -42 51 -64 44 -26 45 -27 22 -35 -60 -22 -149 -21 -245 3 -71
18 -99 21 -112 13 -9 -6 -55 -53 -101 -105 -46 -52 -97 -109 -113 -126 -16
-18 -28 -40 -26 -49 2 -10 16 3 42 38 22 29 76 88 120 131 90 86 96 88 200 61
56 -15 70 -15 176 1 112 16 257 52 248 61 -3 2 -26 -2 -52 -10 l-47 -14 -29
51 c-16 29 -30 48 -30 42 0 -5 11 -29 25 -52 13 -24 19 -43 13 -43 -21 0 -109
75 -115 98 -8 32 14 138 41 197 13 28 51 87 86 133 34 46 73 107 86 136 24 53
55 181 69 286 l7 54 18 -54 c9 -30 29 -79 43 -107 37 -73 56 -162 56 -266 -1
-128 20 -185 98 -268 64 -67 76 -86 47 -75 -8 3 -45 11 -82 16 -73 12 -121 41
-153 94 -10 17 -19 27 -19 23 0 -18 33 -63 61 -83 l29 -21 -70 -67 c-38 -37
-69 -69 -69 -72 2 -17 -130 -160 -168 -182 -72 -43 -84 -57 -18 -21 43 23 98
72 194 171 123 127 137 138 170 138 46 0 170 -24 196 -37 11 -6 56 -16 100
-23 86 -13 135 -32 153 -61 10 -16 8 -17 -26 -13 -36 5 -36 4 16 -20 49 -23
52 -27 53 -63 l1 -38 9 45 c19 102 149 309 209 333 38 16 53 10 194 -77 33
-20 67 -36 77 -36 23 0 135 -84 150 -112 7 -13 39 -57 72 -98 33 -41 73 -102
89 -137 23 -48 40 -68 72 -87 23 -14 55 -43 71 -65 32 -47 42 -53 21 -13 -16
31 -71 84 -103 101 -12 6 -35 39 -52 74 -16 34 -59 98 -95 141 -36 43 -66 84
-66 90 0 11 -84 82 -150 126 -19 13 -37 25 -39 27 -18 13 71 61 173 94 88 28
294 46 334 30 50 -21 176 -241 206 -361 25 -98 67 -179 124 -239 38 -39 56
-68 68 -110 9 -31 23 -71 31 -89 8 -19 13 -35 11 -37 -2 -2 -41 12 -87 31 -46
20 -107 41 -135 48 -47 12 -54 18 -114 102 -97 137 -109 149 -33 34 84 -127
104 -150 137 -150 46 0 230 -79 270 -115 21 -19 43 -35 49 -35 16 0 45 -54 45
-83 0 -38 -18 -42 -22 -5 -2 25 -12 39 -43 60 -41 28 -205 92 -205 80 0 -4 35
-20 78 -36 42 -16 94 -40 116 -53 36 -23 38 -27 33 -64 -10 -76 -95 -228 -119
-213 -5 3 -7 0 -6 -7 2 -7 -2 -13 -9 -14 -6 0 -15 -4 -20 -9 -5 -5 -3 -6 5 -2
6 4 12 2 12 -3 0 -15 -27 -14 -33 2 -3 7 -6 5 -6 -5 -1 -16 -41 -67 -41 -52 0
18 45 82 53 77 6 -4 8 1 4 12 -4 9 -2 25 5 33 10 12 10 14 1 8 -9 -4 -13 -1
-13 10 0 31 -63 135 -99 163 -38 29 -79 53 -48 28 9 -8 17 -19 17 -25 0 -7 18
-47 40 -89 43 -84 46 -102 29 -152 -16 -45 -26 -25 -35 69 -5 61 -14 89 -46
150 -53 98 -70 115 -24 24 46 -94 74 -237 57 -294 l-12 -39 -33 17 c-27 14
-35 25 -40 56 -8 45 -29 89 -63 130 -33 39 -57 89 -84 172 -27 82 -27 95 0
133 12 16 21 37 21 48 0 20 -3 15 -70 -117 -43 -83 -70 -168 -70 -215 0 -32
16 -61 57 -106 23 -25 23 -28 11 -75 l-13 -49 -5 50 c-5 45 -9 52 -47 78 -74
49 -87 77 -94 202 -5 87 -12 124 -33 175 -17 42 -25 76 -22 95 10 57 -52 181
-179 359 -60 83 -38 40 36 -72 105 -159 133 -223 126 -287 -3 -29 -15 -76 -28
-104 -14 -33 -22 -74 -23 -110 -1 -49 -3 -56 -15 -44 -44 45 -3 -44 54 -115
19 -24 38 -55 41 -68 8 -32 -22 -105 -82 -197 -84 -130 -138 -212 -146 -221
-15 -19 5 42 33 95 39 75 60 161 49 198 -4 16 -29 55 -55 87 l-47 58 6 75 c5
63 2 90 -18 161 -37 129 -59 185 -76 187 -8 2 -39 8 -68 15 -59 13 -155 0
-198 -29 -29 -19 -30 -13 -5 35 26 51 97 122 122 122 52 0 139 -71 139 -114 0
-9 5 -16 11 -16 14 0 2 37 -23 73 -25 34 -87 67 -129 67 -64 0 -167 -142 -171
-234 -1 -46 -12 -75 -23 -64 -9 9 -11 176 -3 223 5 27 4 33 -2 20 -14 -33 -12
82 4 140 34 130 169 325 224 325 17 0 142 -83 180 -120 17 -17 32 -28 32 -24
0 13 -90 90 -145 123 -37 23 -62 31 -77 27 -32 -8 -81 -56 -126 -124 -53 -78
-62 -95 -92 -187 l-27 -79 -7 61 c-4 35 -11 65 -16 68 -13 8 -13 -97 0 -165 6
-29 9 -55 7 -57 -2 -2 -15 5 -28 15 -34 25 -162 74 -309 117 -98 30 -143 38
-211 39 -83 1 -139 -14 -139 -36 0 -5 10 -2 22 6 38 27 178 21 289 -12 169
-50 309 -113 355 -158 41 -41 42 -44 44 -110 2 -107 6 -129 21 -126 8 2 19 10
24 19 23 38 70 85 98 100 27 14 36 14 93 -2 71 -19 147 -63 164 -95 10 -19 9
-20 -22 -15 -18 3 -57 15 -86 25 -29 11 -71 20 -93 20 -48 0 -148 -48 -178
-86 -21 -27 -21 -27 -59 -11 -49 22 -118 37 -162 35 -25 0 -28 -2 -10 -4 143
-22 206 -44 196 -70 -19 -45 -14 -43 19 8 30 48 47 63 101 89 55 27 71 31 114
26 75 -9 102 -26 133 -84 25 -47 51 -168 32 -151 -5 5 -15 -1 -22 -12 -8 -11
-18 -18 -22 -15 -5 2 -11 -16 -14 -40 -4 -25 -21 -80 -38 -124 -28 -72 -36
-82 -94 -125 -63 -46 -156 -146 -137 -146 6 0 27 20 47 44 20 25 60 62 88 84
l52 39 129 7 c71 4 135 10 143 13 18 7 10 -34 -18 -92 -11 -22 -24 -67 -30
-100 -15 -82 -19 -88 -75 -105 -27 -8 -50 -18 -52 -22 -2 -5 -10 -8 -17 -8
-17 0 -35 -53 -35 -106 0 -50 16 -67 26 -27 7 25 8 25 15 8 4 -11 8 -14 8 -7
1 6 7 12 14 12 7 0 46 17 87 38 41 21 131 67 200 103 148 75 242 158 254 221
4 21 16 57 26 80 11 24 20 55 20 71 0 18 5 27 16 27 33 0 126 -32 131 -46 3
-7 0 -36 -7 -64 -15 -62 -5 -93 51 -166 27 -35 50 -55 70 -59 61 -14 34 -22
-74 -23 -160 -2 -390 -28 -429 -48 -48 -25 -191 -173 -205 -213 -14 -38 -12
-37 38 29 57 75 72 90 133 137 45 35 70 46 105 50 25 2 70 8 100 13 30 6 120
10 200 10 l146 0 -35 -35 c-35 -34 -36 -35 -200 -55 -270 -33 -334 -43 -345
-51 -5 -6 -3 -9 5 -9 8 0 0 -15 -21 -37 -19 -21 -45 -50 -58 -65 l-23 -26 34
12 c18 6 48 20 66 29 18 10 55 21 82 24 l49 6 -1 -34 c-1 -34 36 -169 67 -242
11 -27 33 -49 76 -77 97 -62 102 -62 253 3 123 54 210 252 176 403 -11 46 -6
52 40 56 33 3 35 1 44 -35 11 -43 -7 -173 -30 -221 -8 -16 -14 -35 -14 -41 0
-7 -7 -18 -15 -25 -19 -16 -20 -31 -1 -24 30 11 78 149 106 304 13 73 28 96
83 125 21 11 41 24 44 28 3 5 -8 2 -24 -6 -53 -28 -120 -31 -201 -11 l-74 19
6 65 c4 36 9 97 11 135 l4 70 -10 -70 c-17 -126 -42 -178 -81 -167 -30 7 -58
61 -58 109 0 54 27 124 45 117 9 -4 12 0 8 14 -4 15 7 27 44 52 26 18 59 43
73 55 14 12 53 30 88 40 55 16 65 17 89 4 26 -14 113 -111 133 -149 6 -11 15
-118 20 -237 6 -119 12 -218 15 -221 3 -3 5 10 5 28 0 44 10 31 44 -58 l28
-72 -26 -77 c-14 -42 -24 -78 -22 -80 9 -9 69 175 70 212 1 29 -14 70 -52 148
-41 83 -52 117 -50 145 3 35 5 31 45 -63 23 -55 47 -120 54 -145 l12 -45 22
70 c22 71 48 122 87 175 21 29 82 60 116 60 27 0 121 -98 145 -150 26 -56 36
-228 17 -284 -16 -49 -61 -100 -117 -133 -47 -27 -47 -28 -74 20 -5 9 -14 17
-19 17 -6 0 1 -17 15 -38 15 -23 28 -60 32 -90 l6 -52 -36 -15 c-43 -18 -50
-19 -42 -5 3 5 1 10 -5 10 -6 0 -9 8 -6 18 4 10 -3 44 -13 75 l-20 57 27 15
c33 17 23 20 -13 3 -26 -12 -28 -23 -9 -72 8 -21 -43 -46 -55 -27 -10 15 -16
7 -56 -69 -54 -103 -152 -245 -219 -317 -121 -130 -229 -200 -486 -315 -114
-51 -517 -174 -605 -184 -52 -6 -258 7 -409 27 -165 22 -423 126 -601 244
-111 73 -178 144 -222 232 -48 98 -51 179 -9 339 l29 111 -36 144 c-47 191
-49 199 -38 199 6 0 18 -13 27 -30 13 -21 21 -26 27 -17 6 8 7 7 4 -5 -5 -15
62 -194 91 -244 17 -28 14 -10 -4 37 -11 25 -17 72 -18 123 l-1 81 45 0 45 0
6 -65 c3 -36 21 -113 39 -172 l33 -107 76 -56 76 -57 65 4 c83 4 116 27 161
110 35 66 42 122 25 212 l-7 39 27 -22 c32 -25 54 -27 54 -5 0 8 -5 12 -10 9
-6 -4 -27 12 -47 34 -28 32 -57 49 -140 82 -120 46 -184 59 -299 59 -69 0 -84
3 -100 21 -16 17 -16 22 -4 31 12 8 12 9 -2 4 -21 -6 -64 43 -102 117 -31 61
-33 88 -8 110 17 16 20 13 61 -48 23 -36 62 -82 86 -102 24 -20 41 -41 38 -46
-3 -6 -1 -7 5 -3 6 3 20 -4 32 -16 l21 -23 -7 30 c-4 17 -11 41 -16 54 -5 13
-7 25 -5 27 2 2 31 -11 65 -29 34 -19 59 -36 55 -40 -3 -4 2 -7 13 -7 27 0 83
-35 194 -119 52 -39 111 -76 131 -81 38 -11 84 -51 72 -65 -5 -4 -2 -5 5 -1 6
4 12 4 12 -1 0 -4 13 -17 28 -27 l27 -19 -25 29 c-14 16 -50 56 -80 90 -72 79
-110 125 -110 133 0 7 -289 173 -335 193 -16 6 -38 20 -49 31 -16 17 -17 24
-6 83 7 35 16 67 21 70 5 3 55 0 111 -7 147 -16 302 -89 381 -178 15 -17 31
-31 36 -31 15 0 -72 85 -117 113 -24 15 -75 43 -113 62 -125 63 -188 141 -189
231 0 68 11 103 42 135 30 29 55 39 42 17 -5 -10 -4 -10 5 -2 15 14 86 7 124
-12 15 -8 27 -12 27 -10 0 10 -60 36 -83 36 -13 0 -27 3 -31 7 -3 4 -16 8 -28
10 -33 5 -34 11 -8 38 13 14 18 25 12 25 -6 0 -14 -4 -17 -10 -3 -5 -23 -10
-44 -10 -38 0 -38 0 -45 46 -3 26 -6 52 -6 59 0 6 28 19 61 29 53 14 72 15
141 5 48 -7 91 -20 111 -33 40 -27 88 -48 94 -42 8 8 -57 95 -83 113 -13 8
-23 18 -20 20 3 3 25 -9 50 -27 25 -17 46 -27 46 -21 0 18 -60 60 -117 81 -87
33 -197 18 -270 -36 -23 -16 -23 -16 -23 28 0 43 2 45 38 57 20 6 69 18 107
26 59 11 64 13 30 14 -39 1 -80 -7 -159 -31 l-39 -12 7 -121 c3 -66 9 -158 12
-205 5 -75 3 -89 -16 -120 -11 -19 -43 -82 -71 -140 -50 -104 -51 -105 -51
-205 -1 -69 4 -113 15 -142 9 -24 12 -43 7 -43 -32 0 -192 247 -206 320 -7 34
35 120 127 257 38 57 67 103 64 103 -3 0 -21 -25 -41 -55 -20 -30 -40 -55 -43
-55 -8 0 -39 128 -45 190 -3 25 -10 77 -15 115 -6 39 -11 111 -12 160 -1 50
-4 72 -6 50 -2 -22 -9 -44 -16 -50 -51 -42 -195 -240 -184 -252 3 -3 13 10 23
29 34 66 174 229 174 202 0 -5 -18 -32 -41 -59 -55 -67 -200 -323 -199 -352 1
-5 24 37 53 92 29 55 81 143 117 195 l65 94 6 -50 c19 -142 19 -141 -17 -166
-19 -13 -34 -27 -34 -33 0 -5 -18 -27 -39 -50 -64 -64 -108 -147 -120 -223 -6
-37 -12 -132 -14 -211 -3 -128 -5 -145 -23 -158 -10 -8 -18 -19 -16 -24 1 -6
-2 -8 -8 -4 -14 9 -133 -47 -173 -81 -56 -47 -49 -52 36 -22 l82 29 -101 -96
c-118 -110 -164 -172 -165 -224 0 -35 -1 -35 -11 -11 -6 14 -12 72 -12 130 -1
99 1 108 28 155 16 28 77 98 134 157 120 122 137 146 146 208 l7 45 -27 -54
c-31 -62 -34 -60 -59 52 -10 43 -22 80 -27 83 -4 3 -9 17 -9 32 -1 15 -6 -10
-10 -56 -10 -95 -32 -136 -102 -192 -77 -61 -135 -164 -137 -240 -1 -64 -20
-10 -20 57 0 53 7 79 45 163 45 100 85 229 85 274 0 23 -45 110 -110 212 -36
58 -37 74 -6 159 34 93 61 127 140 176 39 24 94 65 121 91 69 64 239 175 289
190 44 12 70 28 45 28 -55 -1 -242 -114 -316 -191 -21 -22 -92 -75 -158 -119
-129 -85 -229 -176 -223 -205 3 -15 6 -15 30 4 l27 21 -6 -55 c-5 -52 -3 -59
45 -142 77 -135 92 -169 92 -207 0 -41 -28 -122 -77 -223 -44 -90 -54 -177
-29 -249 9 -26 17 -64 17 -83 2 -43 4 -33 20 88 11 85 16 98 54 151 24 31 59
67 78 79 40 25 107 95 107 114 1 29 19 -23 24 -69 l6 -49 -84 -75 c-92 -83
-131 -135 -147 -195 -14 -51 -6 -227 13 -279 l14 -38 13 43 c7 24 21 60 31 79
23 45 134 149 239 224 55 39 87 69 96 90 7 17 15 90 18 162 6 135 28 265 53
319 13 29 14 27 9 -32 -5 -51 -2 -70 16 -105 20 -40 21 -48 11 -113 -6 -38
-14 -132 -18 -207 l-7 -137 -36 26 c-35 26 -35 25 5 -13 39 -37 42 -43 53
-128 7 -49 25 -130 42 -181 28 -90 29 -95 15 -149 -42 -161 -44 -280 -5 -393
26 -79 126 -189 223 -248 36 -22 66 -43 66 -46 0 -3 -18 -11 -39 -18 -56 -16
-145 -79 -179 -126 -16 -22 -41 -68 -55 -102 l-25 -63 27 19 c30 20 142 73
147 68 2 -1 -8 -38 -22 -81 -23 -74 -43 -196 -32 -196 3 0 14 33 23 73 21 84
85 217 113 234 11 7 41 15 66 18 37 4 46 2 46 -10 0 -23 -28 -75 -61 -113 -24
-27 -108 -147 -133 -190 -16 -27 13 -10 32 19 38 61 234 267 290 306 l57 40
140 -43 c172 -53 226 -62 435 -70 188 -7 231 0 505 82 153 45 212 69 390 159
188 94 395 249 442 331 10 16 37 59 61 95 l43 64 -6 -100 c-12 -187 -31 -252
-104 -352 -51 -70 -91 -90 -242 -119 -179 -34 -224 -48 -275 -86 -50 -37 -132
-169 -164 -264 -24 -68 -24 -74 -6 -74 8 0 17 15 20 36 11 55 106 233 145 272
49 47 76 57 265 96 191 39 215 52 320 169 57 64 91 121 121 202 7 18 8 18 17
-8 6 -16 7 -49 3 -74 -6 -41 -17 -56 -103 -143 -71 -70 -125 -114 -202 -160
-153 -93 -329 -228 -343 -263 -4 -11 -23 -42 -42 -69 -19 -26 -35 -50 -35 -53
0 -3 40 -5 89 -5 l89 0 163 81 c90 44 178 91 194 103 17 12 92 57 168 100 167
94 232 147 315 255 75 99 82 114 82 194 0 56 4 67 33 102 32 39 32 41 32 142
0 57 2 103 6 103 3 0 9 -4 15 -9 15 -16 124 -41 174 -41 57 0 84 15 43 23 -75
15 -115 82 -114 193 0 61 4 79 23 105 18 24 23 42 21 87 -1 32 -6 69 -11 83
-10 26 -9 27 60 54 61 24 79 27 137 21 37 -3 93 -14 124 -25 31 -10 57 -15 57
-11 0 13 -85 38 -169 51 -58 9 -93 9 -132 1 -30 -5 -55 -9 -57 -7 -2 1 21 16
50 32 66 38 150 112 188 169 17 23 30 45 30 48 0 3 -21 -9 -47 -28 -27 -18
-86 -53 -132 -76 -93 -46 -96 -46 -192 12 -45 27 -48 32 -68 106 -32 121 -62
263 -57 271 3 4 78 -3 168 -17 l163 -24 77 -51 c51 -34 73 -54 65 -59 -22 -14
-40 -8 -178 57 -76 36 -142 65 -146 64 -4 0 53 -31 127 -69 143 -73 161 -77
253 -59 64 13 79 33 17 23 -24 -4 -40 -3 -40 4 0 5 -15 15 -32 23 -18 7 -56
28 -84 47 -53 34 -77 39 -312 69 l-63 8 40 54 c23 30 41 60 41 66 0 7 12 24
27 39 15 15 37 57 49 93 15 45 30 71 46 79 31 18 91 17 133 0 40 -17 43 -35
20 -112 -19 -63 -19 -109 1 -138 17 -27 142 -133 189 -160 l30 -18 -30 23
c-16 13 -60 52 -98 88 -83 80 -95 112 -72 202 9 34 14 73 10 86 -9 35 -41 63
-75 63 -23 0 -30 5 -30 19 0 11 -13 27 -29 37 -16 10 -31 28 -34 41 -2 13 -2
22 2 21 3 -2 29 -15 56 -29 82 -44 150 -60 200 -49 61 14 95 31 95 48 0 10 -5
12 -17 7 -55 -23 -91 -34 -115 -35 -37 0 -130 36 -159 61 -13 12 -46 38 -74
59 -27 20 -59 47 -69 59 -11 11 -25 21 -33 21 -7 0 -13 5 -13 10 0 17 27 11
95 -21 54 -26 72 -42 103 -87 20 -31 44 -58 52 -60 9 -3 4 8 -11 24 -15 16
-34 44 -44 63 -13 27 -35 42 -112 78 -65 31 -92 48 -84 56 7 7 19 6 40 -3 18
-7 45 -9 71 -5 l41 7 -46 30 c-25 16 -47 34 -50 38 -3 5 -13 7 -23 4 -15 -5
-15 -4 -1 5 12 8 37 3 99 -19 45 -16 84 -31 87 -34 2 -2 19 -26 36 -54 68
-107 172 -194 213 -178 27 10 14 26 -22 26 -30 0 -43 8 -76 43 -22 23 -53 66
-70 94 -39 69 -71 95 -169 134 l-81 34 39 30 c129 101 188 179 208 273 l7 34
-40 -44 c-46 -50 -104 -83 -127 -74 -9 3 -21 19 -27 36 -5 17 -27 42 -47 56
l-36 26 40 -7 c22 -3 50 -13 63 -21 35 -23 26 1 -12 29 -18 14 -65 68 -105
120 -82 108 -111 126 -224 135 l-68 5 20 21 c33 36 72 133 83 207 5 39 8 73 6
75 -2 2 -13 -22 -23 -52 -23 -68 -104 -147 -167 -165 -57 -15 -202 -2 -221 20
-9 9 -16 46 -19 91 -7 107 -23 133 -100 159 -34 12 -82 21 -107 21 -45 -1
-156 -20 -196 -34 -43 -16 77 83 144 118 58 30 78 36 104 31 59 -13 15 11 -63
33 -112 33 -187 29 -312 -14 -212 -73 -208 -72 -263 -57 -27 8 -82 12 -120 11
l-71 -3 4 26 c9 61 -50 299 -74 299 -3 0 -3 -8 1 -17z m-130 -673 c-3 -5 -12
-10 -18 -10 -7 0 -6 4 3 10 19 12 23 12 15 0z m-1036 -335 l32 -60 -31 35
c-33 36 -69 104 -70 130 0 16 17 -10 69 -105z m2683 9 c148 -47 184 -67 212
-122 13 -26 35 -53 48 -59 l23 -11 -28 -13 c-40 -18 -122 0 -245 55 -112 50
-112 50 -112 36 0 -5 5 -10 11 -10 9 0 204 -87 218 -97 2 -2 1 -6 -3 -10 -17
-18 -130 32 -224 99 l-24 16 17 71 c10 39 19 71 21 71 2 0 40 -12 86 -26z
m381 -141 c-11 -32 -126 -144 -193 -187 -36 -24 -86 -49 -112 -56 -27 -7 -48
-17 -48 -23 0 -6 -27 -8 -77 -3 -55 4 -92 14 -136 36 -33 17 -62 28 -65 26 -5
-6 82 -50 130 -65 26 -9 48 -27 70 -57 39 -54 49 -51 13 5 -22 36 -23 40 -5
29 21 -13 43 -64 34 -79 -2 -5 2 -19 10 -31 7 -13 17 -45 21 -71 3 -27 9 -46
12 -44 7 7 -25 165 -39 190 -13 25 -3 33 26 19 22 -10 24 -9 19 6 -4 13 -2 13
10 -3 8 -10 13 -25 10 -32 -3 -7 0 -13 5 -13 6 0 14 -21 18 -47 l7 -48 9 33
c10 36 13 39 22 16 4 -10 2 -13 -7 -8 -6 3 0 -4 15 -17 37 -33 69 -102 75
-163 4 -42 1 -58 -18 -91 l-23 -39 -9 34 c-21 81 -60 210 -64 206 -2 -2 8 -46
23 -97 23 -77 27 -111 26 -187 -3 -98 -27 -188 -59 -214 -15 -11 -16 -11 -9 7
13 33 35 146 31 158 -2 7 -6 24 -9 39 -4 16 -34 59 -67 98 -47 55 -63 83 -75
128 -8 31 -21 71 -28 87 -39 86 -56 117 -51 95 2 -14 5 -40 5 -58 0 -22 4 -31
11 -26 6 3 4 -5 -5 -19 -26 -38 -141 -61 -186 -37 -10 5 -24 26 -30 46 -7 20
-32 55 -56 79 l-44 42 53 26 c29 15 64 39 79 54 38 40 135 190 150 229 14 39
17 40 50 15 43 -34 151 -94 192 -107 40 -12 41 -12 16 -22 -14 -6 -18 -11 -10
-11 36 -2 235 112 270 154 16 20 21 19 13 -2z m-188 -93 c3 -5 1 -10 -4 -10
-6 0 -11 5 -11 10 0 6 2 10 4 10 3 0 8 -4 11 -10z m-25 -14 c0 -2 -7 -7 -16
-10 -8 -3 -12 -2 -9 4 6 10 25 14 25 6z m-76 -169 c4 4 4 -1 0 -10 -3 -10 -7
-17 -8 -15 -1 2 -8 12 -16 23 -14 18 -13 19 1 8 9 -7 19 -10 23 -6z m-508 -92
c33 -25 67 -73 78 -111 6 -19 -2 -23 -99 -49 -58 -15 -108 -26 -110 -23 -3 3
-23 46 -44 96 l-39 91 31 6 c120 19 147 18 183 -10z m-210 -30 c64 -155 61
-178 -6 -44 -31 61 -37 79 -25 79 9 0 23 -16 31 -35z m-130 -172 c17 -11 16
-12 -13 -12 -18 -1 -36 -2 -40 -3 -9 -1 -73 90 -73 104 0 5 24 -10 54 -34 29
-24 62 -48 72 -55z m984 66 c0 -15 -18 -19 -23 -6 -3 8 1 14 9 14 8 0 14 -4
14 -8z m-335 -75 c3 -31 2 -32 -48 -38 -29 -3 -61 -8 -72 -10 -11 -2 -31 -4
-45 -5 -24 -2 -24 -2 -6 -16 11 -8 35 -15 53 -15 18 0 33 -4 33 -8 0 -13 -120
-72 -147 -72 -13 0 -34 -9 -46 -21 -12 -11 -46 -37 -74 -56 -46 -30 -66 -53
-47 -53 7 0 92 59 119 83 20 18 32 22 102 31 39 6 72 15 171 47 30 10 35 8 59
-17 l25 -28 -23 -8 c-12 -5 -28 -7 -34 -4 -6 2 -17 -5 -23 -15 -7 -10 -19 -19
-27 -19 -8 0 -15 -9 -15 -20 0 -21 -40 -37 -61 -24 -7 4 -10 3 -6 -3 4 -6 -47
-31 -121 -60 -156 -61 -179 -68 -316 -88 -60 -9 -116 -20 -126 -25 -13 -7 -11
2 9 44 68 137 72 149 61 185 -5 19 -7 39 -3 45 3 6 3 8 -2 4 -9 -9 -46 35 -74
89 -11 23 -21 44 -21 46 0 7 111 21 230 31 25 2 79 14 120 26 82 25 129 31
147 18 6 -5 14 -5 18 2 3 5 30 11 58 11 29 1 66 4 82 8 33 7 44 -7 50 -65z
m346 0 c8 -32 19 -49 35 -56 32 -15 30 -21 -10 -40 l-33 -16 7 31 c4 19 1 48
-7 71 -14 41 -16 56 -8 56 3 0 10 -21 16 -46z m-2633 2 c32 -17 141 -126 126
-126 -6 0 -24 11 -40 25 -45 39 -141 84 -198 92 -47 6 -49 8 -21 14 52 12 105
10 133 -5z m500 -2 c41 -13 51 -21 56 -44 3 -15 8 -41 12 -56 l7 -29 -34 32
c-37 35 -165 83 -220 83 -42 0 -33 8 22 19 68 14 103 12 157 -5z m-603 -28
c28 -7 59 -18 70 -25 20 -12 20 -12 0 -7 -63 14 -99 16 -137 5 -99 -26 -111
-21 -50 23 20 15 44 25 52 22 8 -4 38 -12 65 -18z m359 -37 c-29 -30 -44 -26
-25 8 5 10 19 19 32 20 21 2 21 1 -7 -28z m601 -51 c7 -25 5 -28 -20 -28 -22
0 -26 3 -20 18 4 9 10 25 12 35 7 23 19 11 28 -25z m-1397 -45 c-1 -10 1 -30
5 -45 9 -34 -2 -41 -42 -27 -22 8 -30 16 -27 26 3 8 6 19 6 23 0 7 43 37 57
40 1 0 1 -8 1 -17z m1647 -81 c-7 -7 -25 47 -24 71 1 14 6 5 15 -22 8 -25 12
-47 9 -49z m1272 12 c-3 -3 -12 -4 -19 -1 -8 3 -5 6 6 6 11 1 17 -2 13 -5z
m-2584 -31 c-9 -16 -18 -29 -19 -31 -1 -2 -4 11 -6 28 -4 26 -2 30 19 30 23 0
23 0 6 -27z m2665 12 c19 -7 22 -12 17 -44 -10 -56 -45 -171 -53 -171 -4 0
-15 13 -24 30 -9 16 -40 42 -68 57 -56 30 -110 70 -110 82 0 14 69 40 127 47
32 3 59 8 61 9 4 3 15 1 50 -10z m-2995 -12 c13 -24 16 -61 4 -66 -24 -9 -48
19 -41 47 6 24 28 35 37 19z m1957 -98 c11 -22 19 -53 19 -70 0 -28 -1 -27
-14 12 -7 23 -27 68 -45 100 -30 54 -30 56 -5 28 14 -16 35 -48 45 -70z m-370
55 c0 -5 -5 -10 -11 -10 -5 0 -7 5 -4 10 3 6 8 10 11 10 2 0 4 -4 4 -10z
m1155 0 c-3 -5 -12 -10 -18 -10 -7 0 -6 4 3 10 19 12 23 12 15 0z m-2772 -58
c24 -25 25 -31 16 -70 -7 -35 -41 -115 -54 -130 -9 -10 -35 15 -50 48 -17 37
-17 40 3 72 11 18 25 50 32 71 6 20 15 37 19 37 4 0 19 -12 34 -28z m1647 15
c0 -16 47 -60 73 -70 28 -11 16 -40 -21 -51 -58 -16 -102 30 -102 107 0 22 5
27 25 27 14 0 25 -6 25 -13z m1110 3 c74 -12 155 -48 188 -83 17 -18 30 -60
52 -163 44 -212 51 -234 86 -260 17 -13 48 -30 70 -38 l39 -15 -68 0 c-78 -1
-117 15 -155 63 -78 96 -212 201 -282 220 -14 4 7 -11 45 -33 77 -44 190 -130
181 -138 -3 -3 -50 24 -105 61 -55 36 -114 72 -131 81 -31 16 -31 16 -20 -5 6
-11 15 -18 20 -15 11 7 257 -154 290 -190 44 -48 76 -58 174 -56 81 1 96 5
174 41 48 23 94 48 104 57 10 9 18 12 18 7 0 -14 -88 -97 -143 -133 -87 -59
-174 -93 -245 -98 -95 -7 -114 3 -135 71 -22 67 -96 154 -168 192 -27 15 -49
31 -49 35 0 4 -6 14 -13 21 -7 7 -48 63 -91 124 -42 62 -89 122 -103 135 -14
13 -1 -9 30 -49 73 -95 122 -176 142 -236 16 -47 16 -48 -6 -64 -12 -8 -28
-22 -35 -31 -7 -9 -22 -27 -33 -41 -12 -14 -19 -18 -16 -9 3 9 -1 22 -10 29
-8 7 -15 9 -15 4 0 -4 -16 7 -35 26 -19 19 -35 39 -35 44 1 6 16 -7 35 -29 19
-22 35 -34 35 -26 0 11 3 11 15 1 9 -7 18 -10 22 -6 3 3 1 6 -5 6 -5 0 -18 20
-28 45 -9 25 -21 48 -25 51 -5 2 -1 -12 7 -32 22 -53 12 -62 -20 -19 -22 29
-31 34 -38 24 -7 -10 -8 -8 -4 6 4 13 -2 29 -17 45 -12 14 -39 51 -60 84 -21
32 -62 82 -91 112 -29 30 -49 54 -44 54 4 0 32 -9 62 -21 68 -25 147 -95 187
-163 16 -28 29 -46 29 -41 0 32 -84 134 -163 199 -26 21 -45 41 -42 45 3 3 33
15 65 27 57 20 60 20 88 4 35 -22 71 -64 118 -140 20 -33 39 -60 41 -60 14 0
-61 113 -107 162 l-55 57 90 35 c102 40 98 39 185 26z m-1650 -55 c-6 -8 -9
-19 -5 -24 4 -7 0 -8 -10 -5 -14 6 -14 8 1 25 20 22 32 26 14 4z m438 -92 c40
-16 52 -29 52 -54 0 -20 -54 -37 -132 -42 l-57 -4 30 58 c16 32 29 68 29 79 0
20 0 20 21 -1 11 -11 37 -28 57 -36z m225 -26 c-2 -4 -11 0 -19 8 -9 8 -23 15
-32 15 -12 1 -10 5 8 14 22 13 25 12 35 -8 7 -11 10 -24 8 -29z m-1440 -2 c23
-47 22 -49 -13 -28 -32 18 -34 22 -24 47 9 24 19 19 37 -19z m817 -20 c36 -18
48 -40 42 -71 -4 -22 -9 -24 -62 -24 -32 0 -73 -3 -91 -6 l-34 -5 25 21 c52
43 80 74 80 87 0 17 4 16 40 -2z m-1186 -47 c26 -97 26 -109 8 -136 -25 -37
-42 -101 -41 -153 1 -24 3 -33 6 -19 12 79 15 92 23 84 9 -9 72 -186 68 -188
-2 -1 -13 -10 -25 -20 -19 -16 -27 -17 -52 -6 -29 12 -29 13 -36 113 -6 91 1
185 22 305 5 32 21 43 27 20z m1639 -36 c-11 -72 -59 -114 -225 -197 -83 -42
-153 -74 -155 -71 -7 7 97 189 142 250 18 23 32 29 95 37 41 6 89 14 105 18
41 10 45 7 38 -37z m-1259 23 c35 5 66 -6 66 -24 0 -7 -123 4 -147 14 -7 2
-13 9 -13 14 0 7 9 7 28 0 15 -6 44 -8 66 -4z m1534 -11 c14 -10 21 -22 17
-33 -11 -36 -8 -170 5 -186 7 -8 9 -15 5 -15 -8 0 -44 42 -62 74 -20 34 -15
176 6 176 4 0 17 -7 29 -16z m567 -136 c19 -40 35 -81 35 -91 0 -10 4 -16 9
-12 5 3 13 0 17 -6 4 -8 3 -9 -4 -5 -7 4 -12 3 -12 -2 0 -10 26 -37 55 -56 19
-14 19 -14 0 -69 -18 -55 -35 -66 -35 -25 0 11 -22 66 -49 122 -32 65 -52 122
-56 159 -4 31 -4 57 -1 57 4 0 22 -32 41 -72z m45 -337 c12 -31 18 -62 14 -74
-5 -17 -12 -6 -31 48 -14 39 -32 75 -40 82 -10 8 -17 33 -19 65 l-4 53 30 -60
c16 -33 38 -84 50 -114z m-440 143 c0 -2 -7 -4 -15 -4 -8 0 -15 4 -15 10 0 5
7 7 15 4 8 -4 15 -8 15 -10z m-2016 -85 c-31 -12 -40 -9 -20 6 10 8 24 11 29
8 6 -4 2 -10 -9 -14z m2979 -36 c21 -3 58 0 83 6 58 15 66 9 89 -68 21 -70 16
-110 -20 -153 -30 -35 -33 -96 -9 -173 20 -66 25 -105 13 -105 -29 0 -123 57
-154 92 l-35 42 0 -31 c0 -17 7 -67 15 -110 8 -43 15 -102 15 -131 0 -47 -2
-51 -17 -41 -30 19 -94 108 -118 163 -20 46 -21 58 -12 126 5 41 10 87 11 102
0 14 4 24 8 22 3 -2 14 16 24 40 21 51 35 48 60 -13 23 -55 75 -131 89 -131 7
0 20 -15 28 -33 15 -31 74 -84 83 -74 3 3 -11 17 -30 32 -20 15 -36 32 -36 37
0 6 -13 27 -29 47 -18 23 -32 56 -38 94 -12 68 -2 64 22 -11 9 -29 19 -51 22
-48 12 11 -31 119 -87 219 -33 60 -60 111 -60 114 0 3 10 2 23 -2 12 -4 39 -9
60 -12z m-1330 -199 c4 -7 8 -17 8 -21 1 -5 17 -23 36 -42 30 -29 40 -33 72
-28 21 2 44 1 52 -4 8 -4 21 -3 29 2 13 8 13 10 0 18 -10 7 -17 6 -22 -2 -4
-6 -11 -8 -15 -3 -4 5 -1 11 7 14 8 3 29 20 45 38 25 26 40 33 88 39 41 5 57
4 57 -4 0 -7 -14 -43 -31 -80 -24 -52 -43 -77 -79 -105 -26 -20 -52 -36 -57
-35 -4 1 -21 -4 -38 -11 -72 -31 -96 -33 -133 -10 -20 12 -30 25 -26 32 4 6 3
8 -4 5 -5 -4 -21 6 -35 22 -14 17 -28 27 -31 24 -3 -4 -6 1 -6 10 0 10 -9 36
-19 60 -23 51 -31 85 -25 101 6 17 116 -1 127 -20z m-1383 -9 c6 -4 9 -12 8
-18 -4 -18 50 -92 77 -107 25 -13 35 -40 15 -40 -5 0 -10 -4 -10 -9 0 -6 12
-6 31 1 19 7 28 15 25 24 -6 16 -4 16 47 5 20 -5 37 -7 37 -6 0 19 -17 35 -36
35 l-23 0 22 33 c21 31 22 32 64 22 47 -11 54 -20 22 -28 -12 -3 -18 -10 -14
-16 3 -6 2 -11 -4 -11 -6 0 -8 -7 -4 -17 6 -14 8 -14 23 5 10 12 20 19 23 16
7 -8 -14 -54 -25 -54 -4 0 -8 -8 -8 -18 0 -36 -71 -82 -125 -82 -27 0 -78 27
-148 79 -53 39 -90 104 -102 177 l-6 41 50 -13 c28 -7 56 -16 61 -19z m2505
-206 c8 -23 14 -56 14 -73 -1 -20 -3 -24 -6 -11 -30 129 -39 122 -13 -11 17
-90 18 -109 6 -204 -15 -121 -26 -146 -97 -224 -65 -72 -102 -97 -276 -189
-122 -65 -213 -117 -303 -174 -14 -9 -10 -2 10 15 19 17 91 65 160 106 80 48
148 98 190 140 36 35 68 62 72 60 9 -6 155 254 181 324 18 49 21 76 20 190 -1
119 0 132 13 113 8 -11 21 -39 29 -62z m74 -131 c64 -137 88 -287 56 -358 -10
-22 -20 -38 -23 -35 -3 2 -37 -25 -76 -62 -39 -36 -99 -84 -133 -106 -35 -22
-60 -44 -56 -50 3 -6 1 -7 -6 -3 -6 4 -33 -6 -59 -21 -77 -47 -471 -227 -479
-219 -2 2 3 20 11 40 19 45 84 87 380 246 44 23 95 52 115 65 47 30 142 129
175 182 34 55 61 220 51 315 -4 44 -3 68 4 68 5 0 23 -28 40 -62z m-222 -113
l35 -60 -33 -65 -34 -65 -3 45 c-2 25 -9 77 -17 117 -8 40 -15 85 -15 100 1
27 1 27 16 8 9 -11 31 -47 51 -80z m-91 -58 c6 -53 4 -63 -31 -133 -20 -42
-38 -74 -40 -72 -2 2 3 28 11 58 8 30 14 63 14 74 0 43 23 147 31 139 4 -4 11
-34 15 -66z m337 -254 c-10 -28 -43 -73 -54 -73 -5 0 -30 -15 -56 -34 -49 -34
-133 -80 -133 -72 0 2 23 18 51 36 28 17 82 60 119 95 38 36 71 65 74 65 3 0
3 -8 -1 -17z m-111 -142 c-29 -25 -104 -74 -165 -109 -161 -90 -548 -284 -555
-278 -2 3 2 22 9 43 14 36 21 41 159 100 80 34 152 66 161 71 9 6 56 27 105
47 121 50 252 118 294 154 57 48 50 23 -8 -28z m-2459 13 l32 -17 -35 -15
c-138 -61 -285 -135 -316 -158 l-37 -28 8 24 c19 62 75 115 178 169 85 45 121
50 170 25z m1717 -257 c0 -2 -19 -21 -42 -42 -23 -22 -34 -29 -23 -15 27 32
65 66 65 57z"/>
<path d="M3585 3040 c22 -10 76 -20 120 -23 46 -3 72 -2 60 3 -11 5 -45 9 -75
10 -30 0 -73 7 -95 15 -54 20 -59 17 -10 -5z"/>
<path d="M3778 3033 c6 -2 18 -2 25 0 6 3 1 5 -13 5 -14 0 -19 -2 -12 -5z"/>
<path d="M3566 2795 c4 -11 9 -32 12 -47 2 -16 9 -28 14 -28 6 0 7 7 4 16 -3
9 -6 21 -6 28 0 7 -7 21 -16 32 -15 19 -16 19 -8 -1z"/>
<path d="M3601 2624 c0 -11 3 -14 6 -6 3 7 2 16 -1 19 -3 4 -6 -2 -5 -13z"/>
<path d="M3260 2550 c-130 -9 -272 -29 -285 -41 -13 -13 24 -11 139 6 55 8
127 15 160 15 77 0 137 10 130 21 -3 5 -13 8 -22 7 -9 -1 -64 -4 -122 -8z"/>
<path d="M3588 2453 c7 -3 16 -2 19 1 4 3 -2 6 -13 5 -11 0 -14 -3 -6 -6z"/>
<path d="M2285 2095 c-5 -2 -23 -6 -38 -9 -15 -4 -25 -11 -22 -16 3 -6 15 -6
31 0 14 6 39 10 55 10 18 0 28 4 24 10 -6 10 -29 12 -50 5z"/>
<path d="M2710 1329 c0 -4 -8 -6 -17 -2 -14 5 -15 3 -6 -7 8 -9 19 -10 39 -3
27 9 28 10 6 15 -12 4 -22 2 -22 -3z"/>
<path d="M2726 1295 c-3 -8 -1 -17 4 -20 6 -4 10 2 10 11 0 17 1 17 13 0 12
-16 13 -16 13 1 0 22 -32 28 -40 8z"/>
<path d="M2410 1270 c-13 -8 -13 -10 2 -10 9 0 20 5 23 10 8 13 -5 13 -25 0z"/>
<path d="M2380 1256 c0 -2 8 -10 18 -17 15 -13 16 -12 3 4 -13 16 -21 21 -21
13z"/>
<path d="M2485 1250 c-3 -6 1 -7 9 -4 18 7 21 14 7 14 -6 0 -13 -4 -16 -10z"/>
<path d="M2545 1240 c-3 -6 1 -7 9 -4 18 7 21 14 7 14 -6 0 -13 -4 -16 -10z"/>
<path d="M2480 1215 c0 -9 -5 -13 -11 -10 -6 4 -5 -2 3 -14 7 -12 22 -20 33
-20 17 1 17 2 3 6 -19 5 -24 19 -9 25 5 2 3 9 -5 16 -12 11 -14 10 -14 -3z"/>
<path d="M2645 1222 c5 -9 -1 -15 -14 -19 -21 -5 -30 -33 -11 -33 6 0 10 5 10
10 0 6 5 10 11 10 5 0 7 -5 3 -12 -4 -6 3 -4 15 5 13 8 29 13 36 10 8 -2 18 4
23 14 9 16 7 19 -18 18 -16 0 -28 -2 -28 -5 1 -20 -4 -21 -18 -4 -8 10 -12 13
-9 6z m65 -12 c0 -5 -5 -10 -11 -10 -5 0 -7 5 -4 10 3 6 8 10 11 10 2 0 4 -4
4 -10z"/>
<path d="M2445 1186 c10 -14 19 -26 22 -26 7 0 -17 39 -28 46 -6 3 -3 -5 6
-20z"/>
<path d="M2412 1184 c10 -10 20 -15 24 -12 3 4 -5 12 -18 18 -22 12 -22 12 -6
-6z"/>
<path d="M2480 1150 c-12 -8 -9 -10 13 -10 16 0 26 4 22 10 -8 12 -16 12 -35
0z"/>
<path d="M1056 1277 c3 -10 9 -15 12 -12 3 3 0 11 -7 18 -10 9 -11 8 -5 -6z"/>
<path d="M1050 1189 c0 -5 5 -7 10 -4 6 3 10 1 10 -4 0 -6 5 -11 11 -11 8 0 8
5 -1 15 -14 17 -30 20 -30 4z"/>
<path d="M1280 1153 c0 -24 24 -32 36 -11 4 6 3 8 -4 4 -6 -3 -15 2 -21 11 -9
16 -10 16 -11 -4z"/>
<path d="M1184 1118 c-9 -14 12 -15 41 -2 l30 13 -33 -2 c-19 -1 -36 -5 -38
-9z"/>
<path d="M1878 4333 c7 -3 16 -2 19 1 4 3 -2 6 -13 5 -11 0 -14 -3 -6 -6z"/>
<path d="M2162 4305 c0 -16 2 -22 5 -12 2 9 2 23 0 30 -3 6 -5 -1 -5 -18z"/>
<path d="M1834 4298 c-16 -13 -39 -34 -50 -48 -12 -14 -32 -36 -44 -50 -28
-31 -70 -118 -70 -145 -1 -39 -38 -101 -95 -155 -31 -30 -66 -68 -77 -85 -13
-18 -4 -12 23 16 76 81 204 188 242 204 20 8 79 18 129 21 127 7 129 8 182 59
44 42 65 77 80 135 6 22 5 21 -10 -5 -28 -51 -84 -115 -114 -130 -16 -8 -55
-17 -87 -20 -87 -9 -175 -26 -205 -42 -16 -7 -29 -10 -29 -6 -11 71 66 206
145 254 17 10 26 19 20 19 -6 0 -24 -10 -40 -22z"/>
<path d="M1659 4232 c-76 -82 -142 -160 -172 -207 -15 -22 -27 -35 -28 -30 -1
14 -17 -27 -18 -45 -1 -8 20 17 46 55 25 39 88 118 140 178 101 115 119 144
32 49z"/>
<path d="M1485 4070 c-9 -16 -13 -30 -11 -30 3 0 12 14 21 30 9 17 13 30 11
30 -3 0 -12 -13 -21 -30z"/>
<path d="M2930 4073 c-45 -9 -173 -64 -244 -105 -86 -51 -147 -106 -181 -165
-40 -68 -23 -62 19 7 27 43 55 72 99 102 58 38 208 118 223 118 4 0 -32 -25
-80 -55 -133 -83 -246 -175 -246 -200 0 -5 13 4 28 22 37 43 148 123 254 185
48 28 85 54 83 59 -5 7 61 26 78 21 4 -1 7 3 7 8 0 6 -3 9 -7 9 -5 -1 -19 -4
-33 -6z"/>
<path d="M1348 3867 c-79 -57 -136 -103 -78 -64 14 9 58 38 98 64 39 25 72 50
72 55 0 11 7 15 -92 -55z"/>
<path d="M1910 3890 c-8 -5 -10 -10 -5 -10 6 0 17 5 25 10 8 5 11 10 5 10 -5
0 -17 -5 -25 -10z"/>
<path d="M1860 3870 c-8 -5 -10 -10 -5 -10 6 0 17 5 25 10 8 5 11 10 5 10 -5
0 -17 -5 -25 -10z"/>
<path d="M3053 3853 c9 -2 25 -2 35 0 9 3 1 5 -18 5 -19 0 -27 -2 -17 -5z"/>
<path d="M1788 3834 c-38 -20 -36 -28 2 -9 17 9 30 18 30 20 0 7 -1 6 -32 -11z"/>
<path d="M2940 3809 c-36 -22 -96 -56 -134 -75 -37 -19 -66 -38 -63 -40 3 -3
25 5 49 17 83 42 238 142 216 139 -2 -1 -32 -19 -68 -41z"/>
<path d="M3121 3846 c2 -2 24 -6 49 -9 30 -4 38 -3 25 3 -19 8 -83 14 -74 6z"/>
<path d="M3028 3813 c12 -2 32 -2 45 0 12 2 2 4 -23 4 -25 0 -35 -2 -22 -4z"/>
<path d="M1729 3793 c-13 -16 -12 -17 4 -4 9 7 17 15 17 17 0 8 -8 3 -21 -13z"/>
<path d="M1459 3756 c-7 -14 -18 -26 -25 -26 -7 0 -16 -4 -19 -10 -3 -6 1 -7
9 -4 13 5 12 -2 -5 -41 -11 -26 -18 -49 -16 -52 3 -2 11 13 18 34 10 32 13 35
20 18 6 -16 8 -12 8 15 1 20 8 46 17 58 9 13 13 26 10 29 -3 3 -11 -6 -17 -21z"/>
<path d="M1735 3759 c-4 -6 -5 -12 -2 -15 2 -3 7 2 10 11 7 17 1 20 -8 4z"/>
<path d="M1685 3749 c-4 -6 -5 -12 -2 -15 2 -3 7 2 10 11 7 17 1 20 -8 4z"/>
<path d="M2448 3733 c6 -2 18 -2 25 0 6 3 1 5 -13 5 -14 0 -19 -2 -12 -5z"/>
<path d="M1711 3699 c-6 -18 -9 -34 -7 -36 2 -2 9 10 15 28 6 18 9 34 7 36 -2
2 -9 -10 -15 -28z"/>
<path d="M2393 3723 c9 -2 23 -2 30 0 6 3 -1 5 -18 5 -16 0 -22 -2 -12 -5z"/>
<path d="M1665 3709 c-4 -6 -5 -12 -2 -15 2 -3 7 2 10 11 7 17 1 20 -8 4z"/>
<path d="M2318 3713 c12 -2 30 -2 40 0 9 3 -1 5 -23 4 -22 0 -30 -2 -17 -4z"/>
<path d="M2608 3699 c-21 -11 -38 -22 -38 -24 0 -3 18 4 40 15 22 11 40 23 40
25 0 7 0 7 -42 -16z"/>
<path d="M1370 3680 c-12 -16 -19 -30 -16 -30 2 0 14 14 26 30 12 17 19 30 16
30 -2 0 -14 -13 -26 -30z"/>
<path d="M2673 3663 c-29 -15 -51 -29 -49 -31 5 -4 106 46 106 53 0 7 0 7 -57
-22z"/>
<path d="M1636 3629 c-9 -29 -16 -57 -15 -63 0 -6 9 16 20 49 10 32 16 61 14
63 -2 2 -11 -20 -19 -49z"/>
<path d="M1152 3650 c0 -14 2 -19 5 -12 2 6 2 18 0 25 -3 6 -5 1 -5 -13z"/>
<path d="M2520 3650 c-9 -6 -10 -10 -3 -10 6 0 15 5 18 10 8 12 4 12 -15 0z"/>
<path d="M1676 3600 c-8 -28 -18 -68 -21 -88 -3 -20 6 1 19 48 13 47 23 87 21
88 -2 2 -11 -19 -19 -48z"/>
<path d="M1325 3615 c-8 -14 -22 -37 -31 -52 -17 -27 -27 -112 -15 -131 3 -5
7 15 8 45 2 39 12 72 32 109 30 55 34 74 6 29z"/>
<path d="M1431 3564 c0 -43 4 -97 8 -119 5 -24 6 5 3 75 -6 134 -12 159 -11
44z"/>
<path d="M891 3614 c0 -11 3 -14 6 -6 3 7 2 16 -1 19 -3 4 -6 -2 -5 -13z"/>
<path d="M2988 3623 c7 -3 16 -2 19 1 4 3 -2 6 -13 5 -11 0 -14 -3 -6 -6z"/>
<path d="M3114 3622 c8 -13 66 -56 66 -49 0 3 -17 17 -37 33 -20 15 -33 23
-29 16z"/>
<path d="M2328 3603 c7 -3 16 -2 19 1 4 3 -2 6 -13 5 -11 0 -14 -3 -6 -6z"/>
<path d="M2508 3603 c7 -3 16 -2 19 1 4 3 -2 6 -13 5 -11 0 -14 -3 -6 -6z"/>
<path d="M2270 3585 c-14 -8 -20 -14 -15 -14 6 0 21 6 35 14 14 8 21 14 15 14
-5 0 -21 -6 -35 -14z"/>
<path d="M2435 3590 c-25 -11 1 -11 35 0 20 6 21 8 5 8 -11 0 -29 -3 -40 -8z"/>
<path d="M1141 3574 c0 -11 3 -14 6 -6 3 7 2 16 -1 19 -3 4 -6 -2 -5 -13z"/>
<path d="M2988 3583 c12 -2 30 -2 40 0 9 3 -1 5 -23 4 -22 0 -30 -2 -17 -4z"/>
<path d="M1381 3564 c0 -11 3 -14 6 -6 3 7 2 16 -1 19 -3 4 -6 -2 -5 -13z"/>
<path d="M3051 3576 c8 -8 79 -35 79 -30 0 3 -16 12 -35 20 -33 14 -53 18 -44
10z"/>
<path d="M2740 3560 c-8 -5 -10 -10 -5 -10 6 0 17 5 25 10 8 5 11 10 5 10 -5
0 -17 -5 -25 -10z"/>
<path d="M2199 3543 c-13 -16 -12 -17 4 -4 16 13 21 21 13 21 -2 0 -10 -8 -17
-17z"/>
<path d="M1612 3520 c0 -19 2 -27 5 -17 2 9 2 25 0 35 -3 9 -5 1 -5 -18z"/>
<path d="M2288 3529 c-10 -5 -18 -14 -18 -19 0 -5 -11 -26 -25 -46 -14 -20
-25 -42 -25 -48 1 -6 9 5 20 25 10 19 32 50 48 67 31 33 30 39 0 21z"/>
<path d="M3408 3533 c6 -2 18 -2 25 0 6 3 1 5 -13 5 -14 0 -19 -2 -12 -5z"/>
<path d="M2146 3499 c-14 -17 -26 -35 -26 -41 0 -14 3 -11 34 35 31 45 27 48
-8 6z"/>
<path d="M3280 3517 c-30 -5 -50 -11 -45 -13 6 -2 42 2 80 10 39 7 59 14 45
14 -14 0 -50 -5 -80 -11z"/>
<path d="M861 3494 c0 -11 3 -14 6 -6 3 7 2 16 -1 19 -3 4 -6 -2 -5 -13z"/>
<path d="M2234 3502 c-6 -4 -14 -18 -18 -32 -6 -20 -5 -22 4 -10 15 20 31 50
28 50 -2 0 -8 -4 -14 -8z"/>
<path d="M1641 3454 c0 -11 3 -14 6 -6 3 7 2 16 -1 19 -3 4 -6 -2 -5 -13z"/>
<path d="M852 3425 c0 -16 2 -22 5 -12 2 9 2 23 0 30 -3 6 -5 -1 -5 -18z"/>
<path d="M1241 3424 c0 -11 3 -14 6 -6 3 7 2 16 -1 19 -3 4 -6 -2 -5 -13z"/>
<path d="M2196 3425 c-9 -26 -7 -32 5 -12 6 10 9 21 6 23 -2 3 -7 -2 -11 -11z"/>
<path d="M2740 3436 c0 -2 64 -38 143 -79 137 -71 164 -87 253 -149 34 -24 44
-26 74 -18 36 10 286 22 277 14 -2 -3 -49 -29 -103 -59 -95 -53 -116 -68 -57
-43 92 40 273 172 273 199 0 4 -26 -6 -57 -22 -62 -31 -196 -56 -314 -60 -52
-2 -73 2 -95 17 -37 25 -394 207 -394 200z"/>
<path d="M1231 3380 c-1 -14 -3 -50 -6 -80 l-5 -55 15 57 c10 39 11 65 5 80
l-9 23 0 -25z"/>
<path d="M1291 3398 c-1 -12 31 -89 35 -85 3 2 -4 24 -15 48 -11 24 -20 41
-20 37z"/>
<path d="M1452 3365 c0 -16 2 -22 5 -12 2 9 2 23 0 30 -3 6 -5 -1 -5 -18z"/>
<path d="M1461 3314 c0 -11 3 -14 6 -6 3 7 2 16 -1 19 -3 4 -6 -2 -5 -13z"/>
<path d="M1347 3272 c23 -43 71 -94 82 -87 5 2 14 -9 21 -25 7 -17 14 -29 17
-27 2 2 -6 24 -17 48 -12 28 -20 37 -20 24 0 -17 -5 -15 -33 15 -17 19 -40 46
-50 60 -17 24 -17 24 0 -8z"/>
<path d="M1411 3274 c0 -11 3 -14 6 -6 3 7 2 16 -1 19 -3 4 -6 -2 -5 -13z"/>
<path d="M1472 3280 c0 -8 4 -26 8 -40 6 -20 8 -21 8 -5 0 11 -3 29 -8 40 -5
12 -8 14 -8 5z"/>
<path d="M2660 3130 c30 -19 172 -71 183 -66 7 2 6 5 -3 5 -8 1 -53 17 -100
36 -86 36 -106 42 -80 25z"/>
<path d="M1178 3103 c12 -2 30 -2 40 0 9 3 -1 5 -23 4 -22 0 -30 -2 -17 -4z"/>
<path d="M1248 3093 c6 -2 18 -2 25 0 6 3 1 5 -13 5 -14 0 -19 -2 -12 -5z"/>
<path d="M1315 3080 c11 -5 27 -9 35 -9 9 0 8 4 -5 9 -11 5 -27 9 -35 9 -9 0
-8 -4 5 -9z"/>
<path d="M2309 3038 c24 -32 45 -58 48 -58 7 0 -59 89 -76 103 -8 7 5 -14 28
-45z"/>
<path d="M1005 3055 c-16 -13 -27 -27 -24 -29 3 -3 18 8 34 24 35 36 31 38
-10 5z"/>
<path d="M2695 3054 c26 -19 111 -44 149 -43 21 0 9 6 -39 18 -38 9 -80 23
-92 29 -30 17 -42 14 -18 -4z"/>
<path d="M2878 3053 c6 -2 18 -2 25 0 6 3 1 5 -13 5 -14 0 -19 -2 -12 -5z"/>
<path d="M2948 3043 c6 -2 18 -2 25 0 6 3 1 5 -13 5 -14 0 -19 -2 -12 -5z"/>
<path d="M944 2999 c-19 -22 -19 -22 4 -8 12 8 22 17 22 21 0 12 -6 9 -26 -13z"/>
<path d="M3113 3013 c9 -2 25 -2 35 0 9 3 1 5 -18 5 -19 0 -27 -2 -17 -5z"/>
<path d="M2923 3003 c26 -2 68 -2 95 0 26 2 4 3 -48 3 -52 0 -74 -1 -47 -3z"/>
<path d="M900 2965 c-7 -9 -45 -31 -84 -51 -72 -36 -55 -38 20 -3 35 17 98 69
82 69 -3 0 -11 -7 -18 -15z"/>
<path d="M1609 2953 c-13 -16 -12 -17 4 -4 9 7 17 15 17 17 0 8 -8 3 -21 -13z"/>
<path d="M2390 2926 c19 -26 39 -50 44 -54 5 -3 -6 16 -24 42 -19 26 -39 50
-44 54 -5 3 6 -16 24 -42z"/>
<path d="M1560 2850 c-17 -45 -29 -87 -27 -93 2 -7 10 7 16 31 7 23 21 63 32
89 11 25 18 48 15 50 -2 2 -18 -32 -36 -77z"/>
<path d="M1870 2877 c0 -2 15 -16 33 -33 l32 -29 -29 33 c-28 30 -36 37 -36
29z"/>
<path d="M524 2844 c-18 -14 -18 -15 4 -4 12 6 22 13 22 15 0 8 -5 6 -26 -11z"/>
<path d="M2910 2856 c0 -2 7 -7 16 -10 8 -3 12 -2 9 4 -6 10 -25 14 -25 6z"/>
<path d="M1951 2773 c12 -21 40 -72 62 -113 21 -41 35 -64 32 -50 -13 43 -101
200 -112 200 -3 0 5 -17 18 -37z"/>
<path d="M3000 2806 c0 -2 8 -10 18 -17 15 -13 16 -12 3 4 -13 16 -21 21 -21
13z"/>
<path d="M394 2746 c-19 -19 -34 -40 -34 -47 1 -8 8 -1 16 14 9 16 34 37 57
48 33 14 37 19 19 19 -14 0 -38 -14 -58 -34z"/>
<path d="M2545 2660 c34 -51 130 -150 145 -150 4 0 -23 30 -60 68 -36 37 -78
83 -94 102 -15 19 -11 10 9 -20z"/>
<path d="M342 2652 c-6 -15 -27 -54 -46 -87 -55 -93 -89 -209 -84 -285 2 -40
9 -65 17 -68 9 -3 12 5 10 29 -4 46 8 109 37 199 48 145 53 143 54 -15 1 -77
5 -160 9 -185 4 -25 5 32 3 125 -3 97 0 200 6 240 6 38 10 70 9 72 -2 1 -8
-10 -15 -25z m-79 -197 c-3 -9 -8 -14 -10 -11 -3 3 -2 9 2 15 9 16 15 13 8 -4z"/>
<path d="M2051 2570 c0 -8 4 -22 9 -30 12 -18 12 -2 0 25 -6 13 -9 15 -9 5z"/>
<path d="M2073 2485 c0 -22 2 -30 4 -17 2 12 2 30 0 40 -3 9 -5 -1 -4 -23z"/>
<path d="M2570 2480 c11 -22 23 -40 25 -40 3 0 -4 18 -15 40 -11 22 -23 40
-25 40 -3 0 4 -18 15 -40z"/>
<path d="M556 2435 c-22 -52 -19 -58 5 -12 11 22 18 41 15 44 -3 3 -12 -12
-20 -32z"/>
<path d="M966 2424 c-10 -14 -15 -28 -13 -31 3 -2 13 7 23 21 9 15 14 29 12
32 -3 2 -13 -7 -22 -22z"/>
<path d="M1228 2423 c7 -3 16 -2 19 1 4 3 -2 6 -13 5 -11 0 -14 -3 -6 -6z"/>
<path d="M2081 2404 c0 -11 3 -14 6 -6 3 7 2 16 -1 19 -3 4 -6 -2 -5 -13z"/>
<path d="M1585 2395 c-19 -16 -19 -16 4 -5 27 14 85 5 115 -16 11 -8 25 -14
31 -14 5 0 -4 9 -20 20 -44 28 -105 35 -130 15z"/>
<path d="M1747 2357 c-3 -8 1 -14 8 -14 7 0 11 6 8 14 -3 7 -6 13 -8 13 -2 0
-5 -6 -8 -13z"/>
<path d="M1500 2330 c-12 -17 -26 -28 -31 -25 -5 4 -9 -5 -9 -19 0 -13 -4 -26
-9 -28 -5 -1 -3 -9 5 -16 12 -11 14 -9 14 11 0 13 14 42 31 65 17 23 28 42 26
42 -3 0 -15 -14 -27 -30z"/>
<path d="M511 2304 c0 -11 3 -14 6 -6 3 7 2 16 -1 19 -3 4 -6 -2 -5 -13z"/>
<path d="M1820 2275 c0 -8 4 -15 10 -15 5 0 7 7 4 15 -4 8 -8 15 -10 15 -2 0
-4 -7 -4 -15z"/>
<path d="M507 2226 c-4 -9 -9 -39 -11 -68 -6 -51 -5 -51 8 12 13 63 14 87 3
56z"/>
<path d="M2710 2200 c0 -5 5 -10 11 -10 5 0 7 5 4 10 -3 6 -8 10 -11 10 -2 0
-4 -4 -4 -10z"/>
<path d="M482 2080 c0 -14 2 -19 5 -12 2 6 2 18 0 25 -3 6 -5 1 -5 -13z"/>
<path d="M4265 1800 c-4 -6 -5 -12 -4 -14 2 -1 23 -14 46 -28 l41 -27 0 35 c0
25 -4 34 -16 34 -10 0 -27 3 -38 6 -12 3 -25 1 -29 -6z"/>
<path d="M1038 1683 c7 -3 16 -2 19 1 4 3 -2 6 -13 5 -11 0 -14 -3 -6 -6z"/>
<path d="M900 1660 c-8 -5 -10 -10 -5 -10 6 0 17 5 25 10 8 5 11 10 5 10 -5 0
-17 -5 -25 -10z"/>
<path d="M1776 1608 c-3 -13 -5 -34 -5 -48 1 -15 5 -7 10 19 9 47 6 68 -5 29z"/>
<path d="M110 1531 c0 -6 4 -13 10 -16 6 -3 7 1 4 9 -7 18 -14 21 -14 7z"/>
<path d="M3169 1477 c-3 -20 1 -77 8 -125 16 -114 24 -135 16 -47 -19 214 -18
212 -24 172z"/>
<path d="M1556 1307 c3 -10 9 -15 12 -12 3 3 0 11 -7 18 -10 9 -11 8 -5 -6z"/>
<path d="M1591 1217 c-1 -5 4 -27 10 -51 9 -35 7 -51 -10 -96 -23 -61 -20 -83
4 -26 25 58 27 88 11 136 -8 25 -14 41 -15 37z"/>
<path d="M3430 1215 c0 -5 5 -17 10 -25 5 -8 10 -10 10 -5 0 6 -5 17 -10 25
-5 8 -10 11 -10 5z"/>
<path d="M3452 1150 c0 -14 2 -19 5 -12 2 6 2 18 0 25 -3 6 -5 1 -5 -13z"/>
<path d="M935 1092 c29 -27 55 -40 93 -48 28 -6 56 -8 62 -4 5 3 -15 11 -45
18 -39 8 -65 20 -86 42 -17 16 -38 30 -47 30 -12 0 -4 -12 23 -38z"/>
<path d="M2315 1050 c60 -28 60 -28 157 -16 53 6 101 15 105 19 4 5 -24 4 -62
0 -103 -12 -167 -9 -204 10 -19 9 -39 17 -45 16 -6 0 16 -13 49 -29z"/>
<path d="M1118 1033 c6 -2 18 -2 25 0 6 3 1 5 -13 5 -14 0 -19 -2 -12 -5z"/>
<path d="M1550 968 c0 -21 25 -67 55 -103 21 -25 19 -18 -11 40 -44 83 -44 83
-44 63z"/>
<path d="M392 878 c-13 -7 -21 -17 -18 -25 3 -7 -1 -13 -8 -13 -8 0 -23 -16
-34 -34 -19 -31 -24 -34 -54 -30 -39 7 -118 -12 -118 -27 0 -6 -4 -8 -9 -5 -4
3 -16 -12 -26 -34 -16 -35 -17 -45 -5 -80 7 -22 15 -38 18 -35 3 3 10 -5 16
-17 13 -26 111 -79 149 -81 14 -1 23 -5 21 -9 -12 -19 195 -39 246 -23 26 8
33 52 25 158 -16 209 -95 307 -203 255z m102 -22 c15 -7 27 -18 28 -22 0 -5 4
-8 10 -6 5 1 7 -2 4 -7 -3 -5 1 -28 10 -52 10 -27 18 -92 21 -168 l6 -124 -94
5 c-96 6 -224 42 -261 75 -9 8 -22 12 -29 7 -8 -5 -10 -3 -4 6 6 10 4 12 -11
6 -10 -4 -15 -4 -12 0 4 3 1 19 -7 35 -22 42 -18 82 10 113 22 24 31 26 99 26
74 0 74 0 81 29 3 16 15 37 26 47 10 9 19 22 19 28 0 17 74 18 104 2z"/>
<path d="M2210 742 c0 -8 -59 -39 -115 -60 -68 -26 -177 -46 -285 -52 l-115
-7 102 -1 c103 -2 206 15 317 53 45 15 50 15 87 -3 22 -11 41 -17 43 -13 1 3
1 25 -2 49 -3 27 -9 42 -18 42 -8 0 -14 -4 -14 -8z m20 -42 c0 -23 -4 -24 -32
-9 -17 9 -18 13 -7 20 23 15 39 10 39 -11z"/>
<path d="M1529 627 c11 -13 29 -17 85 -16 l71 2 -65 7 c-36 4 -74 11 -85 16
-18 7 -18 6 -6 -9z"/>
</g>
</svg>
